# xmcd CD database file
#
# Track frame offsets:
#	150
#	12379
#	31853
#	51321
#	68344
#	86141
#	97523
#	117003
#	133463
#	151250
#
# Disc length: 2206 seconds
#
# Revision: 1
# Processed by: cddbd v1.5.1PL2 Copyright (c) Steve Scherf et al.
# Submitted via: CDex 1.40Beta9
#
DISCID=74089c0a
DTITLE=Beck Goldsmith - Purely Second Guesses
DYEAR=1900
DGENRE=Country
TTITLE0=The Only Way
TTITLE1=Between The Lines
TTITLE2=Winter and Rain
TTITLE3=Didn't You Say
TTITLE4=Something Else
TTITLE5=West Wind
TTITLE6=Won't Say No
TTITLE7=Roots
TTITLE8=Make Believe
TTITLE9=Lay It On Me
EXTD=ID3G: 2
EXTT0=
EXTT1=
EXTT2=
EXTT3=
EXTT4=
EXTT5=
EXTT6=
EXTT7=
EXTT8=
EXTT9=
PLAYORDER=
